<?xml version="1.0" encoding="UTF-8"?>
<svg width="600" height="400" viewBox="0 0 600 400" fill="none" xmlns="http://www.w3.org/2000/svg">
  <rect width="600" height="400" fill="#F5F5F5"/>
  <rect x="50" y="150" width="100" height="200" fill="#2196F3"/>
  <rect x="170" y="100" width="80" height="250" fill="#1976D2"/>
  <rect x="270" y="180" width="120" height="170" fill="#0D47A1"/>
  <rect x="410" y="130" width="90" height="220" fill="#1565C0"/>
  <rect x="520" y="200" width="60" height="150" fill="#0D47A1"/>
  
  <!-- Windows -->
  <rect x="65" y="170" width="20" height="20" fill="#E3F2FD"/>
  <rect x="115" y="170" width="20" height="20" fill="#E3F2FD"/>
  <rect x="65" y="210" width="20" height="20" fill="#E3F2FD"/>
  <rect x="115" y="210" width="20" height="20" fill="#E3F2FD"/>
  <rect x="65" y="250" width="20" height="20" fill="#E3F2FD"/>
  <rect x="115" y="250" width="20" height="20" fill="#E3F2FD"/>
  <rect x="65" y="290" width="20" height="20" fill="#E3F2FD"/>
  <rect x="115" y="290" width="20" height="20" fill="#E3F2FD"/>
  
  <rect x="185" y="120" width="15" height="15" fill="#E3F2FD"/>
  <rect x="220" y="120" width="15" height="15" fill="#E3F2FD"/>
  <rect x="185" y="150" width="15" height="15" fill="#E3F2FD"/>
  <rect x="220" y="150" width="15" height="15" fill="#E3F2FD"/>
  <rect x="185" y="180" width="15" height="15" fill="#E3F2FD"/>
  <rect x="220" y="180" width="15" height="15" fill="#E3F2FD"/>
  <rect x="185" y="210" width="15" height="15" fill="#E3F2FD"/>
  <rect x="220" y="210" width="15" height="15" fill="#E3F2FD"/>
  <rect x="185" y="240" width="15" height="15" fill="#E3F2FD"/>
  <rect x="220" y="240" width="15" height="15" fill="#E3F2FD"/>
  <rect x="185" y="270" width="15" height="15" fill="#E3F2FD"/>
  <rect x="220" y="270" width="15" height="15" fill="#E3F2FD"/>
  <rect x="185" y="300" width="15" height="15" fill="#E3F2FD"/>
  <rect x="220" y="300" width="15" height="15" fill="#E3F2FD"/>
  
  <!-- Ground -->
  <rect x="0" y="350" width="600" height="50" fill="#4CAF50"/>
  
  <!-- Sun -->
  <circle cx="500" cy="80" r="40" fill="#FFC107"/>
  
  <!-- Clouds -->
  <ellipse cx="100" cy="80" rx="50" ry="30" fill="white"/>
  <ellipse cx="130" cy="90" rx="40" ry="25" fill="white"/>
  <ellipse cx="70" cy="90" rx="40" ry="25" fill="white"/>
  
  <ellipse cx="300" cy="60" rx="60" ry="35" fill="white"/>
  <ellipse cx="340" cy="70" rx="50" ry="30" fill="white"/>
  <ellipse cx="260" cy="70" rx="50" ry="30" fill="white"/>
</svg>
